<?xml version="1.0" standalone="no"?>
<!DOCTYPE svg PUBLIC "-//W3C//DTD SVG 20010904//EN"
 "http://www.w3.org/TR/2001/REC-SVG-20010904/DTD/svg10.dtd">
<svg version="1.0" xmlns="http://www.w3.org/2000/svg"
 width="256.000000pt" height="256.000000pt" viewBox="0 0 256.000000 256.000000"
 preserveAspectRatio="xMidYMid meet">
<metadata>
Created by potrace 1.11, written by Peter Selinger 2001-2013
</metadata>
<g transform="translate(0.000000,256.000000) scale(0.100000,-0.100000)"
fill="#000000" stroke="none">
<path d="M1080 2496 c-52 -8 -108 -21 -125 -30 -16 -9 -35 -16 -41 -16 -19 0
-138 -40 -144 -48 -3 -5 -25 -16 -50 -26 -25 -10 -52 -24 -60 -31 -8 -8 -27
-18 -41 -24 -64 -24 -334 -282 -357 -341 -3 -8 -16 -30 -28 -48 -13 -18 -39
-68 -59 -110 -20 -42 -43 -88 -50 -102 -7 -14 -18 -49 -25 -77 -6 -29 -15 -53
-20 -53 -11 0 -31 -134 -37 -260 -5 -118 16 -340 36 -364 5 -6 15 -34 22 -61
12 -47 38 -110 76 -180 8 -16 26 -50 39 -75 12 -25 50 -78 83 -118 34 -39 61
-75 61 -80 0 -10 83 -92 93 -92 4 0 40 -27 80 -61 39 -33 88 -69 107 -79 19
-9 62 -31 95 -49 33 -17 68 -31 77 -31 9 0 18 -5 20 -10 2 -6 30 -18 63 -26
33 -9 65 -20 71 -25 16 -13 214 -39 302 -39 86 0 265 19 272 29 3 3 39 15 80
25 41 11 86 25 100 32 14 7 64 32 113 55 48 23 87 45 87 50 0 5 5 9 12 9 6 0
26 11 44 25 18 14 36 25 40 25 11 0 174 151 174 161 0 5 24 38 53 72 66 78
121 161 138 210 7 20 16 37 20 37 7 0 49 123 49 144 0 6 7 25 16 41 58 111 51
563 -10 680 -9 17 -16 37 -16 45 0 9 -6 24 -13 35 -7 11 -24 48 -37 83 -14 34
-28 62 -32 62 -5 0 -8 5 -8 11 0 6 -13 30 -28 53 -15 22 -31 48 -34 56 -18 47
-262 290 -311 310 -7 3 -31 17 -54 33 -24 15 -47 27 -53 27 -5 0 -10 3 -10 8
0 4 -28 18 -62 32 -35 13 -72 30 -83 37 -11 7 -26 13 -35 13 -8 0 -28 7 -45
16 -82 43 -383 65 -555 40z"/>
</g>
</svg>
